{"title":"Star Wars The Clone Wars S03E05 HDTV XviD-2HD","uid":5876295,"size":184814815,"categoryP":"video","categoryS":"tv_shows","magnet":"?xt=urn:btih:04d88a62618cb1043f41aece9b4644574cfdd37a&amp;dn=Star+Wars+The+Clone+Wars+S03E05+HDTV+XviD-2HD&amp;tr=udp%3A%2F%2Ftracker.openbittorrent.com%3A80&amp;tr=udp%3A%2F%2Fopen.demonii.com%3A1337&amp;tr=udp%3A%2F%2Ftracker.coppersurfer.tk%3A6969&amp;tr=udp%3A%2F%2Fexodus.desync.com%3A6969","seeders":0,"leechers":0,"uploader":"HeroMaster","files":-1,"time":1286653844,"description":"Star Wars The Clone Wars S03E05 HDTV XviD-2HD\n\nGeneral\nComplete name : Star.Wars.The.Clone.Wars.S03E05.HDTV.XviD-2HD.avi\nFormat : AVI\nFormat/Info : Audio Video Interleave\nFile size : 176 MiB\nDuration : 22mn 5s\nOverall bit rate : 1 115 Kbps\nWriting application : MEncoder SVN-r30531-4.3.2\nWriting library : MPlayer\n\nVideo\nID : 0\nFormat : MPEG-4 Visual\nFormat profile : Advanced Simple@L5\nFormat settings, BVOP : Yes\nFormat settings, QPel : No\nFormat settings, GMC : No warppoints\nFormat settings, Matrix : Default (H.263)\nCodec ID : XVID\nCodec ID/Hint : XviD\nDuration : 22mn 5s\nBit rate : 972 Kbps\nWidth : 624 pixels\nHeight : 352 pixels\nDisplay aspect ratio : 16:9\nFrame rate : 23.976 fps\nColor space : YUV\nChroma subsampling : 4:2:0\nBit depth : 8 bits\nScan type : Progressive\nBits/(Pixel*Frame) : 0.185\nStream size : 154 MiB (87%)\nWriting library : XviD 1.2.1 (UTC 2008-12-04)\n\nAudio\nID : 1\nFormat : MPEG Audio\nFormat version : Version 1\nFormat profile : Layer 3\nMode : Joint stereo\nMode extension : MS Stereo\nCodec ID : 55\nCodec ID/Hint : MP3\nDuration : 22mn 5s\nBit rate mode : Variable\nBit rate : 128 Kbps\nChannel(s) : 2 channels\nSampling rate : 48.0 KHz\nStream size : 20.6 MiB (12%)\nAlignment : Aligned on interleaves\nInterleave, duration : 24 ms (0.58 video frame)\nInterleave, preload duration : 580 ms\n\nSubtitles: English, Russian\n\n\nENJOY!","torrent":{"xt":"urn:btih:04d88a62618cb1043f41aece9b4644574cfdd37a","amp;dn":"Star+Wars+The+Clone+Wars+S03E05+HDTV+XviD-2HD","amp;tr":["udp%3A%2F%2Ftracker.openbittorrent.com%3A80","udp%3A%2F%2Fopen.demonii.com%3A1337","udp%3A%2F%2Ftracker.coppersurfer.tk%3A6969","udp%3A%2F%2Fexodus.desync.com%3A6969"],"infoHash":"04d88a62618cb1043f41aece9b4644574cfdd37a","infoHashBuffer":{"type":"Buffer","data":[4,216,138,98,97,140,177,4,63,65,174,206,155,70,68,87,76,253,211,122]},"announce":[],"urlList":[]}}